<?xml version="1.0" standalone="no"?>
<!DOCTYPE svg PUBLIC "-//W3C//DTD SVG 20010904//EN"
 "http://www.w3.org/TR/2001/REC-SVG-20010904/DTD/svg10.dtd">
<svg version="1.0" xmlns="http://www.w3.org/2000/svg"
 width="1920.000000pt" height="1920.000000pt" viewBox="0 0 1920.000000 1920.000000"
 preserveAspectRatio="xMidYMid meet">
<metadata>
Created by potrace 1.11, written by Peter Selinger 2001-2013
</metadata>
<g transform="translate(0.000000,1920.000000) scale(0.100000,-0.100000)"
fill="#000000" stroke="none">
<path d="M3345 13425 c-107 -21 -117 -23 -181 -44 -84 -27 -258 -113 -284
-141 -3 -3 -22 -16 -42 -30 -56 -37 -198 -186 -246 -257 -67 -99 -149 -278
-167 -363 -2 -8 -6 -26 -9 -40 -3 -14 -8 -41 -11 -60 -2 -19 -7 -46 -10 -60
-3 -14 -6 -1052 -6 -2307 0 -1769 -3 -2282 -12 -2285 -7 -2 -342 -3 -744 -3
l-733 1 -1 -26 c-1 -14 -2 -74 -2 -135 0 -60 -3 -112 -6 -115 -3 -3 -17 -22
-31 -42 -14 -21 -28 -38 -32 -38 -5 0 -8 -6 -8 -14 0 -8 -4 -16 -8 -18 -5 -1
-32 -34 -61 -73 -30 -38 -57 -71 -62 -73 -5 -2 -9 -10 -9 -18 0 -8 -4 -14 -10
-14 -5 0 -10 -5 -10 -11 0 -7 -8 -19 -18 -28 -10 -9 -33 -37 -50 -63 -18 -25
-38 -52 -44 -60 -11 -11 -51 -62 -195 -251 -18 -23 -43 -56 -55 -74 -13 -17
-58 -76 -100 -132 -43 -55 -78 -102 -78 -104 0 -6 3093 -5 3103 0 7 4 -22 49
-58 90 -5 6 -32 42 -60 80 -27 37 -56 72 -62 76 -7 4 -13 14 -13 22 0 7 -4 15
-8 17 -4 2 -43 50 -87 108 -44 58 -82 107 -85 110 -3 3 -27 34 -55 70 -27 36
-53 67 -57 68 -5 2 -8 8 -8 13 0 5 -7 17 -15 26 -8 10 -51 65 -95 123 -44 58
-90 116 -100 130 -11 13 -20 27 -20 30 0 3 183 5 408 4 224 0 415 4 425 8 9 5
17 5 17 1 0 -4 61 -8 135 -8 74 0 135 4 135 9 0 5 6 4 13 0 10 -8 30 -9 87 -5
11 1 15 15 16 59 0 55 10 157 18 197 17 81 54 216 74 265 5 14 10 28 11 33 6
42 194 357 213 357 4 0 8 5 8 11 0 16 199 211 260 254 30 22 57 42 60 45 6 8
85 52 175 99 188 98 427 153 655 151 107 -1 175 -5 175 -10 0 0 20 -3 45 -5
25 -2 56 -7 70 -10 14 -4 35 -8 47 -10 36 -5 167 -49 233 -77 268 -116 496
-304 647 -533 29 -44 56 -85 60 -90 11 -15 76 -148 79 -162 1 -6 7 -19 13 -30
10 -17 10 -17 12 2 1 11 3 38 5 60 2 22 6 179 9 349 l6 308 330 330 c293 294
329 327 329 301 1 -15 1 -445 1 -955 0 -664 4 -930 12 -935 16 -10 200 -10
215 1 6 4 12 5 12 0 0 -11 201 -10 218 0 7 4 12 4 12 -1 0 -10 101 -10 118 1
6 4 12 4 12 -1 0 -4 54 -8 120 -8 66 0 120 4 120 8 0 5 5 5 12 1 15 -9 71 -9
86 0 7 4 12 4 12 -1 0 -4 29 -8 65 -8 36 0 65 4 65 8 0 5 5 5 12 1 17 -11 228
-11 228 -1 0 5 5 5 12 1 15 -9 71 -9 86 0 7 4 12 4 12 -1 0 -10 101 -10 118 1
6 4 12 4 12 -1 0 -9 217 -9 227 0 3 4 13 2 22 -3 31 -16 43 4 46 84 2 42 6 92
9 111 3 19 9 52 12 73 3 20 10 44 15 53 4 9 6 19 3 21 -8 9 66 218 107 302 67
137 165 273 279 386 122 121 160 152 269 220 187 116 401 190 617 215 32 4
194 6 289 4 20 -1 119 -16 165 -25 14 -3 32 -7 40 -8 28 -5 105 -27 125 -35
11 -5 47 -19 80 -32 33 -12 66 -27 73 -32 6 -5 12 -7 12 -4 0 3 17 -4 39 -16
125 -70 161 -92 161 -99 0 -5 6 -8 14 -8 8 0 16 -3 18 -7 2 -5 21 -21 43 -38
55 -40 87 -69 162 -145 250 -254 402 -609 414 -968 1 -23 6 -45 12 -49 16 -10
107 -10 107 0 0 5 5 5 12 1 17 -11 228 -11 228 -1 0 5 5 5 12 1 15 -9 71 -9
86 0 7 4 12 4 12 -1 0 -10 101 -10 118 1 6 4 12 4 12 -1 0 -9 281 -10 295 -1
11 7 12 4805 1 4848 -3 14 -9 41 -12 60 -3 19 -8 44 -11 55 -4 11 -7 25 -8 30
-3 29 -29 106 -36 111 -5 3 -9 13 -9 23 0 24 -74 171 -119 236 -46 67 -133
173 -173 211 -123 114 -286 217 -408 259 -3 1 -14 5 -25 9 -54 21 -72 27 -90
30 -11 2 -38 9 -60 15 -22 6 -55 11 -73 13 -19 1 -36 6 -38 10 -3 4 -1046 8
-2319 8 l-2314 0 0 -1367 c0 -753 0 -1401 -1 -1441 l0 -74 -330 -330 -330
-330 0 329 c-1 326 -4 689 -15 1948 -4 363 -7 795 -9 960 l-2 300 -1585 1
c-1288 2 -1597 -1 -1654 -11z m2630 -1605 l0 -1065 -1497 -2 -1497 -2 1 829
c0 775 1 832 19 895 49 178 177 315 354 381 76 28 144 29 1380 29 l1240 0 0
-1065z m-1432 -1572 c-86 -89 -1119 -1111 -1168 -1157 l-40 -36 -175 0 -175 1
-2 615 -1 616 800 0 800 1 -39 -40z"/>
<path d="M12942 13423 c6 -7 14 -13 19 -13 5 0 19 -8 31 -17 43 -35 204 -199
233 -238 17 -22 32 -42 35 -45 10 -9 47 -64 74 -110 66 -113 134 -284 150
-380 18 -102 17 17 13 -1415 l-2 -730 1750 0 c963 -1 1757 1 1766 3 9 2 24 27
35 58 10 30 22 54 28 54 5 0 6 3 3 6 -4 4 0 19 7 33 29 56 56 122 56 136 0 8
4 15 10 15 5 0 9 3 8 8 -1 4 6 24 15 46 9 21 17 40 17 42 0 2 11 27 24 56 21
46 35 79 41 98 1 3 11 27 23 53 12 27 22 50 22 52 0 2 14 34 31 72 37 82 41
90 115 268 32 77 60 142 63 145 3 3 7 12 9 20 2 8 10 29 17 45 7 17 39 91 70
165 31 74 65 153 75 175 10 22 34 78 54 125 19 47 47 112 62 145 15 33 28 65
30 70 2 9 148 354 178 420 8 17 37 86 66 155 29 69 60 143 70 165 10 22 30 69
45 105 30 72 45 108 68 160 9 19 17 42 19 50 3 13 -300 15 -2669 16 -2201 0
-2670 -2 -2661 -13z"/>
<path d="M10470 8662 c-21 -2 -124 -22 -192 -37 -47 -10 -211 -84 -271 -122
-37 -24 -69 -43 -72 -43 -3 0 -14 -8 -24 -17 -11 -10 -43 -38 -73 -63 -64 -53
-146 -147 -199 -227 -21 -32 -42 -63 -46 -68 -5 -6 -9 -17 -11 -25 -2 -8 -9
-18 -15 -22 -7 -4 -8 -8 -4 -8 5 0 -1 -17 -12 -37 -22 -43 -58 -138 -66 -180
-36 -174 -46 -315 -30 -428 4 -27 8 -64 10 -82 1 -17 6 -36 10 -43 4 -6 9 -26
12 -43 11 -71 121 -305 167 -356 9 -10 16 -20 16 -23 0 -31 231 -247 315 -294
178 -102 284 -138 490 -169 43 -6 204 -7 245 -1 14 3 47 7 75 11 27 4 59 11
70 15 11 4 22 8 25 8 18 1 67 16 75 23 6 4 12 7 15 7 19 0 68 17 80 27 8 7 25
16 37 19 21 7 126 66 148 83 6 5 28 22 50 38 22 15 76 65 121 110 170 172 283
396 319 635 9 61 10 264 1 325 -9 62 -43 203 -55 230 -74 166 -157 313 -183
323 -4 2 -8 7 -8 12 0 12 -125 136 -178 177 -26 19 -49 38 -52 42 -11 13 -176
103 -220 120 -19 7 -44 17 -55 22 -27 12 -134 41 -165 44 -14 2 -38 6 -55 10
-31 8 -252 13 -295 7z m195 -576 c36 -3 77 -10 113 -22 7 -2 16 -4 20 -5 44
-12 195 -113 214 -143 3 -6 18 -25 32 -41 36 -40 38 -43 64 -95 45 -91 61
-166 58 -274 -2 -56 -6 -110 -9 -121 -20 -72 -68 -174 -100 -211 -39 -47 -108
-114 -117 -114 -5 0 -10 -4 -10 -8 0 -8 -102 -61 -155 -81 -68 -25 -211 -34
-280 -18 -22 5 -48 10 -58 12 -32 7 -157 68 -157 76 0 5 -6 9 -13 9 -11 0 -63
48 -124 115 -28 30 -74 120 -95 183 -21 67 -29 211 -15 287 7 41 58 167 74
183 7 7 13 17 13 21 0 14 116 129 160 158 68 45 174 84 248 90 37 3 69 7 70 9
2 1 9 1 16 -2 6 -2 29 -6 51 -8z"/>
<path d="M5168 8654 c-2 -2 -28 -5 -58 -8 -72 -6 -126 -15 -175 -28 -22 -6
-47 -12 -55 -13 -8 0 -24 -6 -35 -12 -11 -6 -38 -16 -60 -23 -171 -56 -383
-221 -516 -405 -87 -119 -180 -342 -195 -470 -7 -58 -16 -170 -17 -200 0 -36
11 -162 17 -190 29 -140 83 -288 139 -380 17 -28 70 -108 79 -120 22 -28 105
-121 121 -134 10 -9 31 -27 47 -41 73 -64 142 -111 231 -156 66 -33 191 -80
239 -90 65 -13 98 -17 128 -18 17 -1 32 -4 32 -8 0 -10 255 -1 315 10 88 18
106 22 169 44 59 20 201 84 221 100 6 5 41 29 79 54 65 44 165 138 230 215 57
68 149 223 139 233 -4 3 -1 6 5 6 7 0 12 9 12 20 0 11 5 20 12 20 6 0 8 3 5 7
-4 3 -3 11 2 17 11 14 49 148 63 224 15 84 16 286 1 372 -17 105 -45 198 -90
298 -12 29 -23 55 -23 58 0 3 -5 10 -10 17 -6 7 -33 47 -60 90 -55 85 -184
220 -272 285 -59 43 -238 145 -238 135 0 -3 -7 0 -15 7 -8 7 -15 9 -15 4 0 -4
-5 -3 -12 4 -7 7 -22 12 -34 12 -13 0 -25 4 -28 9 -3 4 -22 12 -43 16 -21 3
-58 11 -83 16 -25 5 -83 11 -130 14 -47 3 -93 7 -102 9 -9 2 -18 2 -20 0z
m165 -587 c9 -1 17 -5 17 -10 0 -4 6 -7 13 -6 16 3 77 -23 159 -67 48 -26 152
-138 185 -199 66 -125 84 -221 69 -375 -11 -115 -101 -269 -207 -353 -149
-121 -329 -158 -517 -107 -45 12 -82 26 -82 31 0 5 -7 9 -15 9 -49 0 -245 183
-245 230 0 5 -5 10 -11 10 -5 0 -8 4 -4 9 3 5 1 12 -5 16 -9 5 -30 67 -46 136
-4 13 -7 60 -8 104 -3 125 30 230 103 335 53 76 75 97 162 155 55 37 79 48
129 60 3 1 12 5 21 9 45 20 127 24 282 13z"/>
</g>
</svg>
