<svg viewBox="0 0 112 41" xmlns="http://www.w3.org/2000/svg" fill-rule="evenodd" clip-rule="evenodd" stroke-linejoin="round" stroke-miterlimit="1.41"><g fill="#444" fill-rule="nonzero"><path d="M11.39 12.58a3.85 3.85 0 0 1-2.22 3.51c-.73.37-1.61.55-2.65.55a6.25 6.25 0 0 1-3.87-1.14 4.15 4.15 0 0 1-1.66-3.2h3.6c.05.53.23.94.56 1.25.32.3.73.45 1.23.45.43 0 .77-.12 1.02-.36.25-.23.38-.55.38-.94 0-.36-.12-.65-.35-.89a2.7 2.7 0 0 0-.85-.58c-.35-.15-.82-.33-1.43-.54-.88-.3-1.6-.6-2.16-.88A3.65 3.65 0 0 1 .95 6.37a3.67 3.67 0 0 1 2.38-3.55c.74-.32 1.6-.48 2.55-.48 1.56 0 2.79.37 3.7 1.1a4.22 4.22 0 0 1 1.55 3.04H7.48a1.87 1.87 0 0 0-.5-1.1c-.27-.26-.63-.4-1.1-.4-.39 0-.7.1-.95.32-.25.2-.37.52-.37.93 0 .33.11.6.33.83.22.23.49.42.82.57.33.14.8.33 1.42.55.9.3 1.62.6 2.19.9a3.7 3.7 0 0 1 2.07 3.5zM24.21 5.5v11h-3.39v-1.99a3.66 3.66 0 0 1-1.41 1.54 4.1 4.1 0 0 1-2.18.57 3.81 3.81 0 0 1-3-1.26c-.75-.84-1.12-2-1.12-3.47v-6.4h3.35v5.98c0 .75.2 1.34.58 1.75.39.42.91.62 1.57.62.68 0 1.22-.21 1.62-.65.4-.43.6-1.05.6-1.85V5.5h3.38zM26.23 2.4c0-.51.18-.94.55-1.27.37-.34.85-.5 1.46-.5.6 0 1.1.16 1.46.5.37.33.55.76.55 1.27 0 .5-.18.92-.55 1.25-.37.34-.86.5-1.46.5s-1.1-.16-1.46-.5a1.63 1.63 0 0 1-.55-1.25zm3.69 3.1v11h-3.38v-11h3.38zM36.25 5.36c1.4 0 2.5.35 3.34 1.04.84.7 1.36 1.62 1.57 2.77h-3.15c-.1-.45-.3-.8-.63-1.06a1.89 1.89 0 0 0-1.2-.38c-.39 0-.68.08-.88.24-.2.17-.3.4-.3.7 0 .35.19.6.55.77.36.17.93.34 1.7.52.85.2 1.54.4 2.08.6.54.2 1 .53 1.4 1 .4.45.6 1.07.6 1.85 0 .63-.18 1.19-.52 1.68-.34.48-.84.86-1.48 1.14-.65.28-1.4.41-2.3.41a5.9 5.9 0 0 1-3.56-.98 4.16 4.16 0 0 1-1.64-2.82h3.26c.05.47.25.83.6 1.08.35.25.8.38 1.35.38.38 0 .67-.1.87-.27a.9.9 0 0 0 .3-.7c0-.38-.19-.65-.55-.82A9.98 9.98 0 0 0 35.9 12c-.81-.17-1.48-.36-2-.55-.53-.2-.99-.52-1.37-.96a2.67 2.67 0 0 1-.57-1.8c0-1 .37-1.8 1.12-2.4a4.9 4.9 0 0 1 3.18-.92zM47.2 5.36c1.4 0 2.5.35 3.34 1.04.84.7 1.36 1.62 1.57 2.77h-3.15c-.1-.45-.3-.8-.63-1.06a1.89 1.89 0 0 0-1.2-.38c-.39 0-.68.08-.88.24-.2.17-.3.4-.3.7 0 .35.19.6.55.77.36.17.93.34 1.7.52.85.2 1.54.4 2.08.6.54.2 1 .53 1.4 1 .4.45.6 1.07.6 1.85 0 .63-.18 1.19-.52 1.68-.34.48-.84.86-1.48 1.14-.65.28-1.4.41-2.29.41a5.9 5.9 0 0 1-3.57-.98 4.16 4.16 0 0 1-1.64-2.82h3.26c.05.47.25.83.6 1.08.35.25.8.38 1.35.38.38 0 .67-.1.87-.27a.9.9 0 0 0 .3-.7c0-.38-.19-.65-.55-.82a9.98 9.98 0 0 0-1.76-.52c-.82-.17-1.5-.36-2.02-.55-.52-.2-.98-.52-1.36-.96a2.67 2.67 0 0 1-.57-1.8c0-1 .37-1.8 1.12-2.4a4.9 4.9 0 0 1 3.18-.92zM64.6 10.7c0 .28-.03.58-.1.91h-7.63c.04.83.25 1.43.63 1.79.38.36.87.54 1.46.54a2 2 0 0 0 1.24-.37c.33-.25.55-.58.65-.97h3.58a4.67 4.67 0 0 1-.95 2.08c-.49.61-1.1 1.1-1.86 1.44-.75.35-1.58.52-2.5.52a5.92 5.92 0 0 1-2.87-.68A4.86 4.86 0 0 1 54.28 14a6.1 6.1 0 0 1-.7-3c0-1.16.23-2.16.7-3a4.8 4.8 0 0 1 1.96-1.96c.84-.46 1.8-.68 2.88-.68 1.09 0 2.05.22 2.88.67a4.74 4.74 0 0 1 1.92 1.88c.46.81.68 1.74.68 2.8zm-3.41-.5c.01-.73-.18-1.27-.58-1.64-.4-.36-.9-.54-1.5-.54a2.2 2.2 0 0 0-1.53.55c-.4.37-.64.91-.7 1.62h4.31zM17.05 21.83v13.85h-3.37v-8.66l-3 8.66H7.76L4.74 27v8.68H1.37V21.83h4.12l3.77 9.64 3.69-9.64h4.1zM30.33 24.67v11h-3.4v-1.99a3.66 3.66 0 0 1-1.4 1.54 4.1 4.1 0 0 1-2.18.58 3.81 3.81 0 0 1-3.01-1.27c-.75-.84-1.12-2-1.12-3.47v-6.4h3.36v5.99c0 .75.2 1.33.58 1.74.39.42.91.62 1.57.62.68 0 1.22-.21 1.62-.65.39-.43.59-1.05.59-1.85v-5.84h3.4zM39.64 24.55c1.27 0 2.27.42 3.01 1.26.75.84 1.12 2 1.12 3.47v6.4h-3.38v-6c0-.74-.19-1.31-.58-1.73-.39-.41-.9-.62-1.55-.62a2.1 2.1 0 0 0-1.62.65c-.4.44-.6 1.05-.6 1.86v5.84h-3.38V24.67h3.37v2c.32-.65.79-1.17 1.41-1.55a4.14 4.14 0 0 1 2.2-.57zM45.68 21.57c0-.51.19-.94.55-1.27.37-.34.86-.5 1.46-.5s1.1.16 1.46.5c.37.33.56.76.56 1.27 0 .5-.19.92-.56 1.25-.36.34-.85.5-1.46.5-.6 0-1.09-.16-1.46-.5a1.63 1.63 0 0 1-.55-1.25zm3.7 3.1v11H46v-11h3.37zM56.67 24.53c1.42 0 2.61.4 3.57 1.17a5.2 5.2 0 0 1 1.82 3.23h-3.57c-.1-.47-.33-.84-.65-1.1-.33-.27-.75-.4-1.25-.4-.59 0-1.08.23-1.46.7-.38.47-.57 1.15-.57 2.04 0 .9.2 1.58.57 2.04.38.47.87.7 1.46.7.5 0 .92-.13 1.25-.39.32-.26.54-.63.65-1.1h3.57a5.2 5.2 0 0 1-1.82 3.22 5.47 5.47 0 0 1-3.57 1.18 5.92 5.92 0 0 1-2.87-.69 4.86 4.86 0 0 1-1.96-1.96 6.1 6.1 0 0 1-.71-3c0-1.16.23-2.16.7-3a4.8 4.8 0 0 1 1.96-1.96c.84-.45 1.8-.68 2.88-.68zM63.5 21.57c0-.51.18-.94.55-1.27.37-.34.86-.5 1.46-.5s1.1.16 1.46.5c.37.33.55.76.55 1.27 0 .5-.18.92-.55 1.25-.37.34-.85.5-1.46.5-.6 0-1.1-.16-1.46-.5a1.63 1.63 0 0 1-.55-1.25zm3.69 3.1v11H63.8v-11h3.38zM76.38 24.53a4.46 4.46 0 0 1 4.14 2.63c.41.85.62 1.85.62 3.01a6.8 6.8 0 0 1-.62 3 4.46 4.46 0 0 1-4.13 2.64c-.85 0-1.57-.19-2.18-.57-.6-.38-1.04-.9-1.32-1.56v7.25h-3.37V24.67h3.37v1.99c.28-.66.72-1.18 1.32-1.56.6-.38 1.33-.57 2.17-.57zm-1.08 2.96c-.71 0-1.3.24-1.75.72a2.74 2.74 0 0 0-.68 1.96c0 .82.23 1.47.68 1.96.45.48 1.04.73 1.75.73.72 0 1.3-.24 1.74-.71.44-.48.66-1.14.66-1.98 0-.84-.22-1.5-.66-1.97a2.27 2.27 0 0 0-1.74-.71zM87.08 24.53c.84 0 1.56.19 2.17.57.6.38 1.05.9 1.34 1.56v-2h3.35v11.02H90.6v-2a3.44 3.44 0 0 1-1.34 1.56c-.6.38-1.33.58-2.17.58a4.46 4.46 0 0 1-4.14-2.65 6.8 6.8 0 0 1-.62-3c0-1.16.2-2.16.62-3a4.46 4.46 0 0 1 4.13-2.63zm1.08 2.96c-.72 0-1.3.24-1.75.7a2.78 2.78 0 0 0-.66 1.98c0 .84.22 1.5.66 1.98.45.47 1.03.7 1.75.7.71 0 1.3-.24 1.75-.72.45-.5.68-1.14.68-1.96 0-.83-.23-1.48-.68-1.96a2.3 2.3 0 0 0-1.75-.72zM96.27 21.08h3.37v14.6h-3.37z"/></g><g fill="#444"><path d="M99.98 13.96H98.1a3.08 3.08 0 0 0-6.15 0H88.1V1.62h9.32a2.56 2.56 0 0 1 2.56 2.57v9.77z"/><path d="M89.59 6.14l-4.3 4.3 1.16 1.16 4.3-4.3-1.16-1.16zM95.03 11.56a2.4 2.4 0 1 1 0 4.8 2.4 2.4 0 0 1 0-4.8zm0 1.2a1.2 1.2 0 1 1 0 2.4 1.2 1.2 0 0 1 0-2.4zM83.8 11.6a2.4 2.4 0 1 1 0 4.8 2.4 2.4 0 0 1 0-4.8zm0 1.2a1.2 1.2 0 1 1 0 2.4 1.2 1.2 0 0 1 0-2.4zM79.7 16h-6.51l2.06-2.7h2.39L79.7 16z"/><path d="M74.82 13.3h4.88v.66h-4.88z"/><path d="M86.67 1.62s.13 11.57 0 11.23a3.08 3.08 0 0 0-5.94 1.11h-2.8V3.98a2.36 2.36 0 0 1 2.36-2.36h6.38zm-7.5 6.57v2.57h.74l2.6-2.57h-3.35zm6.23-5.41h-5.09c-.63 0-1.15.51-1.15 1.15v3.3h6.24V2.77z"/></g><path d="M111.04 1.63H99.87c.37.2 1.21 1.07 1.21 2.06l-.02 4.1h7.35l2.63-6.16z" fill="#ff0101"/><clipPath id="a"><path d="M111.04 1.63H99.87c.37.2 1.21 1.07 1.21 2.06l-.02 4.1h7.35l2.63-6.16z"/></clipPath><g clip-path="url(#a)"><path d="M108.25 4.14l-.48 1.15h-1.96l-.57 1.34h-1.68l.57-1.34h-1.95l.49-1.15h1.95l.57-1.34h1.68l-.57 1.34h1.95z" fill="#fff"/></g></svg>